<svg width="254" height="144" viewBox="0 0 254 144" fill="none" xmlns="http://www.w3.org/2000/svg">
<rect x="65" y="93" width="8" height="51" rx="4" fill="#5DDAB4"/>
<path d="M115.535 84.3916C117.127 84.8934 118.834 84.0109 119.24 82.3917C121.932 71.6543 121.042 60.2989 116.657 50.0744C111.874 38.9216 103.249 29.8543 92.3489 24.5195C81.449 19.1847 68.9972 17.9362 57.2552 21.001C45.5132 24.0657 35.2598 31.2403 28.3575 41.2216C21.4552 51.2028 18.3618 63.3287 19.6391 75.3967C20.9165 87.4647 26.4799 98.6742 35.3188 106.989C44.1577 115.304 55.6859 120.174 67.8093 120.712C78.9235 121.206 89.8621 118.03 98.9578 111.721C100.329 110.769 100.553 108.861 99.5211 107.548C98.4896 106.236 96.5947 106.017 95.2155 106.958C87.2637 112.379 77.7461 115.103 68.0776 114.673C57.3997 114.198 47.246 109.91 39.461 102.586C31.6759 95.2625 26.7759 85.3895 25.6508 74.7604C24.5257 64.1313 27.2503 53.4512 33.3297 44.6599C39.409 35.8687 48.4399 29.5496 58.7819 26.8503C69.1239 24.1509 80.0911 25.2505 89.6914 29.9492C99.2917 34.648 106.888 42.6342 111.101 52.4573C114.916 61.3517 115.728 71.2179 113.462 80.5716C113.069 82.194 113.942 83.8898 115.535 84.3916Z" fill="#57CAEB"/>
<circle cx="69" cy="62" r="18" fill="#1B76FD"/>
<path d="M88.0526 49C89.9835 52.3444 91 56.1382 91 60C91 63.8618 89.9835 67.6556 88.0526 71C86.1217 74.3444 83.3444 77.1217 80 79.0526C76.6556 80.9835 72.8618 82 69 82C65.1382 82 61.3444 80.9835 58 79.0526C54.6556 77.1217 51.8783 74.3444 49.9474 71C48.0165 67.6556 47 63.8618 47 60C47 56.1382 48.0165 52.3444 49.9474 49L69 60L88.0526 49Z" fill="#57CAEB"/>
<path d="M95.8468 52.5C98.5676 57.2126 100 62.5584 100 68C100 73.4416 98.5676 78.7874 95.8468 83.5C93.126 88.2126 89.2126 92.126 84.5 94.8468C79.7874 97.5676 74.4416 99 69 99C63.5584 99 58.2126 97.5676 53.5 94.8468C48.7874 92.126 44.874 88.2126 42.1532 83.5C39.4324 78.7874 38 73.4416 38 68C38 62.5584 39.4324 57.2126 42.1532 52.5L69 68L95.8468 52.5Z" fill="#5DDAB4"/>
<circle cx="115" cy="103" r="10" fill="#435EBE"/>
<circle cx="115" cy="103" r="6.66667" fill="white"/>
<circle cx="194" cy="54" r="7" fill="#435EBE"/>
<circle cx="194" cy="54.0002" r="4.66667" fill="white"/>
<path d="M70.924 37.4143C70.5449 37.3894 70.2624 37.2656 70.0766 37.0429C69.8908 36.8202 69.8103 36.5193 69.8353 36.1401L70.3331 28.5665L67.6838 28.3923C67.3745 28.372 67.1405 28.2714 66.9821 28.0907C66.8236 27.9099 66.7542 27.6698 66.7738 27.3705C66.7942 27.0611 66.8944 26.8322 67.0745 26.6837C67.2553 26.5252 67.5004 26.4561 67.8097 26.4765L75.4283 26.9772C75.7376 26.9976 75.9715 27.0981 76.13 27.2789C76.2891 27.4497 76.3585 27.6898 76.3382 27.9991C76.3185 28.2985 76.2183 28.5274 76.0375 28.6859C75.8567 28.8443 75.6117 28.9134 75.3023 28.8931L72.6531 28.719L72.1553 36.2926C72.1303 36.6718 72.0112 36.9596 71.7979 37.156C71.5945 37.3531 71.3032 37.4392 70.924 37.4143Z" fill="#198754"/>
<path d="M78.5383 38.8522C78.169 38.7267 77.9187 38.5308 77.7874 38.2644C77.6561 37.9979 77.6531 37.6801 77.7785 37.3108L80.397 29.5982C80.5224 29.2289 80.7182 28.9786 80.9846 28.8473C81.2509 28.716 81.5687 28.7131 81.938 28.8386L86.8946 30.5229C87.1787 30.6194 87.366 30.7676 87.4566 30.9673C87.5598 31.1609 87.5649 31.3949 87.4716 31.6695C87.3752 31.9536 87.2255 32.1457 87.0226 32.2457C86.8323 32.3395 86.5952 32.3381 86.3111 32.2416L82.306 30.8806L81.5104 33.2242L85.1888 34.4742C85.4823 34.5739 85.6744 34.7237 85.7649 34.9234C85.8682 35.117 85.8716 35.3557 85.7752 35.6398C85.6787 35.9239 85.529 36.1159 85.3261 36.216C85.1359 36.3097 84.894 36.3068 84.6005 36.207L80.9221 34.9571L80.0733 37.4569L84.0784 38.8179C84.3625 38.9144 84.5498 39.0626 84.6404 39.2623C84.7436 39.4558 84.7487 39.6899 84.6554 39.9645C84.559 40.2486 84.4093 40.4406 84.2064 40.5407C84.0161 40.6344 83.779 40.6331 83.4949 40.5365L78.5383 38.8522Z" fill="#198754"/>
<path d="M88.1344 43.5915C87.8185 43.3802 87.6358 43.1317 87.5862 42.8459C87.5366 42.5601 87.6173 42.2592 87.8284 41.9433L92.4532 35.021C92.6699 34.6968 92.9169 34.5071 93.1942 34.4519C93.4799 34.4024 93.7807 34.4832 94.0965 34.6945L97.1264 36.7208C98.1072 37.3768 98.697 38.1321 98.8957 38.9868C99.0999 39.8332 98.9076 40.6971 98.3187 41.5785C97.7299 42.4598 97.0028 42.9721 96.1375 43.1152C95.2722 43.2583 94.3491 43.0019 93.3682 42.3459L91.286 40.9533L89.7611 43.2358C89.55 43.5517 89.303 43.7414 89.0201 43.8049C88.7455 43.8739 88.4502 43.8027 88.1344 43.5915ZM92.2859 39.4566L94.044 40.6324C94.5427 40.9659 94.996 41.1066 95.4036 41.0545C95.8196 41.0078 96.172 40.7684 96.4609 40.336C96.7498 39.9036 96.8335 39.4904 96.7119 39.0963C96.5986 38.7078 96.2927 38.3467 95.7939 38.0132L94.0358 36.8374L92.2859 39.4566Z" fill="#198754"/>
<path d="M95.5361 50.0738C95.2857 49.788 95.1735 49.5007 95.1996 49.2118C95.2257 48.9229 95.3816 48.6531 95.6672 48.4025L102.016 42.8338C102.302 42.5832 102.589 42.4639 102.879 42.4759C103.169 42.4878 103.439 42.6367 103.689 42.9225C103.933 43.2008 104.042 43.4844 104.016 43.7733C103.99 44.0622 103.834 44.3319 103.548 44.5825L97.1994 50.1513C96.9137 50.4018 96.6261 50.5212 96.3364 50.5092C96.0533 50.5048 95.7865 50.3596 95.5361 50.0738Z" fill="#198754"/>
<path d="M97.5686 53.6155C97.4448 53.3643 97.4015 53.1293 97.4385 52.9103C97.48 52.7003 97.5883 52.5242 97.7636 52.382C97.9432 52.2488 98.1828 52.1808 98.4824 52.178L107.726 51.9005C108.102 51.8936 108.406 51.9557 108.637 52.0867C108.878 52.2133 109.063 52.4066 109.191 52.6668C109.319 52.9269 109.36 53.1911 109.314 53.4592C109.276 53.7229 109.138 53.9972 108.9 54.2822L103.063 61.476C102.878 61.7121 102.674 61.863 102.45 61.9289C102.239 61.9993 102.038 61.987 101.846 61.892C101.664 61.7926 101.513 61.6218 101.393 61.3796C101.243 61.0746 101.198 60.8014 101.257 60.5602C101.321 60.328 101.475 60.0739 101.718 59.7979L103.19 58.0683L103.022 59.1878L100.258 53.5767L101.248 54.1257L98.9867 54.2541C98.6066 54.2743 98.3072 54.2436 98.0885 54.1619C97.8833 54.0847 97.71 53.9026 97.5686 53.6155ZM106.837 53.7944L101.885 54.0957L102.231 53.4736L104.306 57.6853L103.602 57.5808L106.85 53.8213L106.837 53.7944Z" fill="#198754"/>
<path d="M101.77 65.0212C101.702 64.6779 101.742 64.3946 101.892 64.1712C102.053 63.9556 102.31 63.8127 102.663 63.7425L111.049 62.0749C111.421 62.0008 111.723 62.0325 111.954 62.17C112.188 62.3174 112.334 62.5431 112.395 62.8471C112.447 63.112 112.433 63.3238 112.353 63.4825C112.284 63.6492 112.15 63.8491 111.952 64.0822L106.401 70.5542L106.322 70.1569L112.472 68.934C112.815 68.8657 113.097 68.9014 113.319 69.0409C113.552 69.1882 113.703 69.4335 113.771 69.7768C113.839 70.1201 113.793 70.3996 113.631 70.6151C113.482 70.8385 113.236 70.9844 112.893 71.0526L104.404 72.7407C104.08 72.8051 103.804 72.7734 103.574 72.6457C103.355 72.516 103.217 72.3089 103.16 72.0245C103.106 71.7498 103.116 71.5184 103.191 71.3302C103.268 71.1518 103.405 70.9461 103.603 70.7129L109.157 64.2557L109.233 64.6382L103.084 65.8611C102.73 65.9313 102.438 65.8977 102.207 65.7601C101.986 65.6206 101.84 65.3743 101.77 65.0212Z" fill="#198754"/>
<path d="M154.6 120.8C150.707 120.8 147.267 120.293 144.28 119.28C141.347 118.267 138.867 116.773 136.84 114.8C134.813 112.773 133.293 110.267 132.28 107.28C131.267 104.293 130.76 100.827 130.76 96.88V68.16C130.76 66.4 131.187 65.0933 132.04 64.24C132.947 63.3867 134.227 62.96 135.88 62.96C137.533 62.96 138.787 63.3867 139.64 64.24C140.547 65.0933 141 66.4 141 68.16V96.8C141 101.867 142.147 105.68 144.44 108.24C146.787 110.747 150.173 112 154.6 112C159.027 112 162.387 110.747 164.68 108.24C166.973 105.68 168.12 101.867 168.12 96.8V68.16C168.12 66.4 168.547 65.0933 169.4 64.24C170.307 63.3867 171.587 62.96 173.24 62.96C174.84 62.96 176.067 63.3867 176.92 64.24C177.827 65.0933 178.28 66.4 178.28 68.16V96.88C178.28 102.107 177.373 106.507 175.56 110.08C173.8 113.653 171.16 116.347 167.64 118.16C164.12 119.92 159.773 120.8 154.6 120.8Z" fill="#198754"/>
<path d="M194.303 120.56C193.236 120.56 192.409 120.267 191.823 119.68C191.289 119.04 191.023 118.187 191.023 117.12V66.48C191.023 65.36 191.289 64.5067 191.823 63.92C192.409 63.3333 193.236 63.04 194.303 63.04C195.369 63.04 196.169 63.3333 196.703 63.92C197.289 64.5067 197.583 65.36 197.583 66.48V117.12C197.583 118.187 197.316 119.04 196.783 119.68C196.249 120.267 195.423 120.56 194.303 120.56Z" fill="#57CAEB"/>
<path d="M213.089 120C211.756 120 210.663 119.733 209.809 119.2C209.009 118.667 208.449 117.947 208.129 117.04C207.863 116.08 207.863 115.04 208.129 113.92C208.449 112.747 209.063 111.547 209.969 110.32L240.529 68.88V72.16H212.289C210.796 72.16 209.649 71.7867 208.849 71.04C208.103 70.2933 207.729 69.2267 207.729 67.84C207.729 66.4533 208.103 65.4133 208.849 64.72C209.649 63.9733 210.796 63.6 212.289 63.6H245.409C246.743 63.6 247.809 63.8667 248.609 64.4C249.463 64.9333 250.023 65.6533 250.289 66.56C250.609 67.4667 250.609 68.5067 250.289 69.68C250.023 70.8533 249.436 72.0533 248.529 73.28L217.969 114.64V111.44H247.409C248.903 111.44 250.023 111.813 250.769 112.56C251.569 113.253 251.969 114.293 251.969 115.68C251.969 117.067 251.569 118.133 250.769 118.88C250.023 119.627 248.903 120 247.409 120H213.089Z" fill="#435EBE"/>
<path d="M152 68.5C152 70.9853 149.985 73 147.5 73C145.015 73 143 70.9853 143 68.5C143 66.0147 145.015 64 147.5 64C149.985 64 152 66.0147 152 68.5Z" fill="#5DDAB4"/>
<circle cx="162.5" cy="68.5" r="4.5" fill="#5DDAB4"/>
<path d="M45.5591 59.5684C43.6856 58.8886 41.5901 59.8544 41.1659 61.8018C40.4237 65.2097 40.3464 68.7408 40.9512 72.1988C41.556 75.6569 42.8271 78.9521 44.6819 81.9058C45.7418 83.5937 48.0408 83.791 49.5723 82.5156C51.1038 81.2403 51.2775 78.9761 50.3012 77.2386C49.2083 75.2937 48.4479 73.1702 48.0606 70.9555C47.6733 68.7408 47.6678 66.4852 48.0357 64.2848C48.3644 62.3191 47.4326 60.2482 45.5591 59.5684Z" fill="white"/>
<path d="M50.7011 83.7756C49.2657 85.1582 49.2101 87.465 50.7717 88.7033C51.7368 89.4686 52.7532 90.167 53.8137 90.7935C55.5296 91.8073 57.663 90.9282 58.4391 89.0925C59.2151 87.2568 58.3311 85.1651 56.6666 84.0689C56.4503 83.9264 56.2368 83.7797 56.0262 83.6288C54.4061 82.4681 52.1365 82.3929 50.7011 83.7756Z" fill="white"/>
<path d="M114.583 99.201C112.71 99.201 109.525 100.296 111.773 104.674C114.583 110.147 120.766 104.674 118.518 101.39C116.269 98.1064 114.239 99.1412 114.021 99.201" stroke="#5DDAB4"/>
</svg>
